{
  "accessors": [
    {
      "bufferView": 2,
      "componentType": 5126,
      "count": 26547,
      "max": [
        0.52701199054718018,
        1,
        0.58731800317764282
      ],
      "min": [
        -0.52701199054718018,
        -0.18564300239086151,
        -0.04992850124835968
      ],
      "type": "VEC3"
    },
    {
      "bufferView": 2,
      "byteOffset": 318564,
      "componentType": 5126,
      "count": 26547,
      "max": [
        1,
        1,
        1
      ],
      "min": [
        -1,
        -1,
        -1
      ],
      "type": "VEC3"
    },
    {
      "bufferView": 3,
      "componentType": 5126,
      "count": 26547,
      "max": [
        1,
        1,
        1,
        1
      ],
      "min": [
        -1,
        -1,
        -1,
        -1
      ],
      "type": "VEC4"
    },
    {
      "bufferView": 1,
      "componentType": 5126,
      "count": 26547,
      "max": [
        0.97035002708435059,
        0.99146401882171631
      ],
      "min": [
        0.0048759998753666878,
        0.0049820002168416977
      ],
      "type": "VEC2"
    },
    {
      "bufferView": 0,
      "componentType": 5125,
      "count": 96873,
      "max": [
        26546
      ],
      "min": [
        0
      ],
      "type": "SCALAR"
    },
    {
      "bufferView": 2,
      "byteOffset": 637128,
      "componentType": 5126,
      "count": 15356,
      "max": [
        0.35000899434089661,
        -0.19934099912643433,
        0.21333999931812286
      ],
      "min": [
        -0.33952298760414124,
        -0.88111799955368042,
        -0.46843600273132324
      ],
      "type": "VEC3"
    },
    {
      "bufferView": 2,
      "byteOffset": 821400,
      "componentType": 5126,
      "count": 15356,
      "max": [
        1,
        0.99992799758911133,
        0.99992799758911133
      ],
      "min": [
        -1,
        -0.99992799758911133,
        -0.99992799758911133
      ],
      "type": "VEC3"
    },
    {
      "bufferView": 3,
      "byteOffset": 424752,
      "componentType": 5126,
      "count": 15356,
      "max": [
        1,
        0.99993270635604858,
        0.99999922513961792,
        1
      ],
      "min": [
        -1,
        -1,
        -0.99999988079071045,
        -1
      ],
      "type": "VEC4"
    },
    {
      "bufferView": 1,
      "byteOffset": 212376,
      "componentType": 5126,
      "count": 15356,
      "max": [
        0.990805983543396,
        0.99080497026443481
      ],
      "min": [
        0.0091939996927976608,
        0.0090929996222257614
      ],
      "type": "VEC2"
    },
    {
      "bufferView": 0,
      "byteOffset": 387492,
      "componentType": 5125,
      "count": 45108,
      "max": [
        15355
      ],
      "min": [
        0
      ],
      "type": "SCALAR"
    },
    {
      "bufferView": 2,
      "byteOffset": 1005672,
      "componentType": 5126,
      "count": 3719,
      "max": [
        0.25514000654220581,
        -0.080458596348762512,
        0.33222299814224243
      ],
      "min": [
        -0.24465300142765045,
        -1,
        -0.58731800317764282
      ],
      "type": "VEC3"
    },
    {
      "bufferView": 2,
      "byteOffset": 1050300,
      "componentType": 5126,
      "count": 3719,
      "max": [
        0.99941682815551758,
        0.99992191791534424,
        0.99992191791534424
      ],
      "min": [
        -0.99941682815551758,
        -0.99992191791534424,
        -0.99992191791534424
      ],
      "type": "VEC3"
    },
    {
      "bufferView": 3,
      "byteOffset": 670448,
      "componentType": 5126,
      "count": 3719,
      "max": [
        0.99999409914016724,
        0.99992692470550537,
        0.99992436170578003,
        1
      ],
      "min": [
        -0.99999368190765381,
        -0.99993550777435303,
        -0.99996036291122437,
        1
      ],
      "type": "VEC4"
    },
    {
      "bufferView": 1,
      "byteOffset": 335224,
      "componentType": 5126,
      "count": 3719,
      "max": [
        0.98977601528167725,
        0.49091899394989014
      ],
      "min": [
        0.010223999619483948,
        0.010223999619483948
      ],
      "type": "VEC2"
    },
    {
      "bufferView": 0,
      "byteOffset": 567924,
      "componentType": 5125,
      "count": 19968,
      "max": [
        3718
      ],
      "min": [
        0
      ],
      "type": "SCALAR"
    },
    {
      "bufferView": 2,
      "byteOffset": 1094928,
      "componentType": 5126,
      "count": 25905,
      "max": [
        0.37132099270820618,
        -0.13062599301338196,
        0.58374297618865967
      ],
      "min": [
        -0.37132099270820618,
        -0.59526801109313965,
        -0.12331099808216095
      ],
      "type": "VEC3"
    },
    {
      "bufferView": 2,
      "byteOffset": 1405788,
      "componentType": 5126,
      "count": 25905,
      "max": [
        1,
        0.9999854564666748,
        0.99999904632568359
      ],
      "min": [
        -1,
        -0.9999854564666748,
        -0.99999904632568359
      ],
      "type": "VEC3"
    },
    {
      "bufferView": 3,
      "byteOffset": 729952,
      "componentType": 5126,
      "count": 25905,
      "max": [
        1,
        0.9999997615814209,
        1,
        1
      ],
      "min": [
        -1,
        -0.99999397993087769,
        -1,
        -1
      ],
      "type": "VEC4"
    },
    {
      "bufferView": 1,
      "byteOffset": 364976,
      "componentType": 5126,
      "count": 25905,
      "max": [
        0.98952102661132812,
        0.9911230206489563
      ],
      "min": [
        0.0104179996997118,
        0.0088870003819465637
      ],
      "type": "VEC2"
    },
    {
      "bufferView": 0,
      "byteOffset": 647796,
      "componentType": 5125,
      "count": 67275,
      "max": [
        25904
      ],
      "min": [
        0
      ],
      "type": "SCALAR"
    }
  ],
  "asset": {
    "extras": {
      "author": "Esteban GUEDON (https://sketchfab.com/estebob)",
      "license": "CC-BY-4.0 (http://creativecommons.org/licenses/by/4.0/)",
      "source": "https://sketchfab.com/3d-models/riding-robot-robottexturechallenge-fec5342649874a96b57d0a242f5da583",
      "title": "Riding robot ( #RobotTextureChallenge)"
    },
    "generator": "Sketchfab-5.40.0",
    "version": "2.0"
  },
  "bufferViews": [
    {
      "buffer": 0,
      "byteLength": 916896,
      "byteOffset": 0,
      "name": "floatBufferViews",
      "target": 34963
    },
    {
      "buffer": 0,
      "byteLength": 572216,
      "byteOffset": 916896,
      "byteStride": 8,
      "name": "floatBufferViews",
      "target": 34962
    },
    {
      "buffer": 0,
      "byteLength": 1716648,
      "byteOffset": 1489112,
      "byteStride": 12,
      "name": "floatBufferViews",
      "target": 34962
    },
    {
      "buffer": 0,
      "byteLength": 1144432,
      "byteOffset": 3205760,
      "byteStride": 16,
      "name": "floatBufferViews",
      "target": 34962
    }
  ],
  "buffers": [
    {
      "byteLength": 4350192,
      "uri": "scene.bin"
    }
  ],
  "images": [
    {
      "uri": "textures/Material_RidingRobot_Arms_metallicRoughness.png"
    },
    {
      "uri": "textures/Material_RidingRobot_Arms_normal.png"
    },
    {
      "uri": "textures/Material_RidingRobot_Arms_baseColor.jpeg"
    },
    {
      "uri": "textures/Material_RidingRobot_Hubs_metallicRoughness.png"
    },
    {
      "uri": "textures/Material_RidingRobot_Hubs_normal.png"
    },
    {
      "uri": "textures/Material_RidingRobot_Hubs_baseColor.jpeg"
    },
    {
      "uri": "textures/Material_RidingRobot_Head_metallicRoughness.png"
    },
    {
      "uri": "textures/Material_RidingRobot_Head_normal.png"
    },
    {
      "uri": "textures/Material_RidingRobot_Head_baseColor.png"
    },
    {
      "uri": "textures/Material_RidingRobot_Wheel_metallicRoughness.png"
    },
    {
      "uri": "textures/Material_RidingRobot_Wheel_normal.png"
    },
    {
      "uri": "textures/Material_RidingRobot_Wheel_baseColor.jpeg"
    }
  ],
  "materials": [
    {
      "doubleSided": true,
      "emissiveFactor": [
        0,
        0,
        0
      ],
      "name": "Material_RidingRobot_Arms",
      "normalTexture": {
        "index": 1,
        "scale": 1,
        "texCoord": 0
      },
      "occlusionTexture": {
        "index": 0,
        "strength": 1,
        "texCoord": 0
      },
      "pbrMetallicRoughness": {
        "baseColorFactor": [
          1,
          1,
          1,
          1
        ],
        "baseColorTexture": {
          "index": 2,
          "texCoord": 0
        },
        "metallicFactor": 1,
        "metallicRoughnessTexture": {
          "index": 0,
          "texCoord": 0
        },
        "roughnessFactor": 1
      }
    },
    {
      "doubleSided": true,
      "emissiveFactor": [
        0,
        0,
        0
      ],
      "name": "Material_RidingRobot_Wheel",
      "normalTexture": {
        "index": 10,
        "scale": 1,
        "texCoord": 0
      },
      "occlusionTexture": {
        "index": 9,
        "strength": 1,
        "texCoord": 0
      },
      "pbrMetallicRoughness": {
        "baseColorFactor": [
          1,
          1,
          1,
          1
        ],
        "baseColorTexture": {
          "index": 11,
          "texCoord": 0
        },
        "metallicFactor": 1,
        "metallicRoughnessTexture": {
          "index": 9,
          "texCoord": 0
        },
        "roughnessFactor": 1
      }
    },
    {
      "doubleSided": true,
      "emissiveFactor": [
        0,
        0,
        0
      ],
      "name": "Material_RidingRobot_Hubs",
      "normalTexture": {
        "index": 4,
        "scale": 1,
        "texCoord": 0
      },
      "occlusionTexture": {
        "index": 3,
        "strength": 1,
        "texCoord": 0
      },
      "pbrMetallicRoughness": {
        "baseColorFactor": [
          1,
          1,
          1,
          1
        ],
        "baseColorTexture": {
          "index": 5,
          "texCoord": 0
        },
        "metallicFactor": 1,
        "metallicRoughnessTexture": {
          "index": 3,
          "texCoord": 0
        },
        "roughnessFactor": 1
      }
    },
    {
      "alphaMode": "BLEND",
      "doubleSided": true,
      "emissiveFactor": [
        0,
        0,
        0
      ],
      "name": "Material_RidingRobot_Head",
      "normalTexture": {
        "index": 7,
        "scale": 1,
        "texCoord": 0
      },
      "occlusionTexture": {
        "index": 6,
        "strength": 1,
        "texCoord": 0
      },
      "pbrMetallicRoughness": {
        "baseColorFactor": [
          1,
          1,
          1,
          1
        ],
        "baseColorTexture": {
          "index": 8,
          "texCoord": 0
        },
        "metallicFactor": 1,
        "metallicRoughnessTexture": {
          "index": 6,
          "texCoord": 0
        },
        "roughnessFactor": 1
      }
    }
  ],
  "meshes": [
    {
      "name": "defaultMaterial",
      "primitives": [
        {
          "attributes": {
            "NORMAL": 1,
            "POSITION": 0,
            "TANGENT": 2,
            "TEXCOORD_0": 3
          },
          "indices": 4,
          "material": 3,
          "mode": 4
        }
      ]
    },
    {
      "name": "defaultMaterial",
      "primitives": [
        {
          "attributes": {
            "NORMAL": 6,
            "POSITION": 5,
            "TANGENT": 7,
            "TEXCOORD_0": 8
          },
          "indices": 9,
          "material": 2,
          "mode": 4
        }
      ]
    },
    {
      "name": "defaultMaterial",
      "primitives": [
        {
          "attributes": {
            "NORMAL": 11,
            "POSITION": 10,
            "TANGENT": 12,
            "TEXCOORD_0": 13
          },
          "indices": 14,
          "material": 1,
          "mode": 4
        }
      ]
    },
    {
      "name": "defaultMaterial",
      "primitives": [
        {
          "attributes": {
            "NORMAL": 16,
            "POSITION": 15,
            "TANGENT": 17,
            "TEXCOORD_0": 18
          },
          "indices": 19,
          "material": 0,
          "mode": 4
        }
      ]
    }
  ],
  "nodes": [
    {
      "children": [
        1
      ],
      "name": "RootNode (gltf orientation matrix)",
      "rotation": [
        -0.70710678118654746,
        -0,
        -0,
        0.70710678118654757
      ]
    },
    {
      "children": [
        2
      ],
      "name": "RootNode (model correction matrix)"
    },
    {
      "children": [
        3,
        5,
        7,
        9
      ],
      "matrix": [
        1,
        0,
        0,
        0,
        0,
        -4.3711390063094768e-08,
        0.999999999999999,
        0,
        0,
        -0.999999999999999,
        -4.3711390063094768e-08,
        0,
        0,
        0,
        0,
        1
      ],
      "name": "Collada visual scene group"
    },
    {
      "children": [
        4
      ],
      "name": "Head_Cylinder"
    },
    {
      "mesh": 0,
      "name": "defaultMaterial"
    },
    {
      "children": [
        6
      ],
      "name": "Wheel.Hub_Cylinder.001"
    },
    {
      "mesh": 1,
      "name": "defaultMaterial"
    },
    {
      "children": [
        8
      ],
      "name": "Wheel.Tire_Cylinder.002"
    },
    {
      "mesh": 2,
      "name": "defaultMaterial"
    },
    {
      "children": [
        10
      ],
      "name": "Arms_Cylinder.003"
    },
    {
      "mesh": 3,
      "name": "defaultMaterial"
    }
  ],
  "samplers": [
    {
      "magFilter": 9729,
      "minFilter": 9987,
      "wrapS": 10497,
      "wrapT": 10497
    }
  ],
  "scene": 0,
  "scenes": [
    {
      "name": "OSG_Scene",
      "nodes": [
        0
      ]
    }
  ],
  "textures": [
    {
      "sampler": 0,
      "source": 0
    },
    {
      "sampler": 0,
      "source": 1
    },
    {
      "sampler": 0,
      "source": 2
    },
    {
      "sampler": 0,
      "source": 3
    },
    {
      "sampler": 0,
      "source": 4
    },
    {
      "sampler": 0,
      "source": 5
    },
    {
      "sampler": 0,
      "source": 6
    },
    {
      "sampler": 0,
      "source": 7
    },
    {
      "sampler": 0,
      "source": 8
    },
    {
      "sampler": 0,
      "source": 9
    },
    {
      "sampler": 0,
      "source": 10
    },
    {
      "sampler": 0,
      "source": 11
    }
  ]
}

